<?xml version="1.0" standalone="no"?>
<!DOCTYPE svg PUBLIC "-//W3C//DTD SVG 20010904//EN"
 "http://www.w3.org/TR/2001/REC-SVG-20010904/DTD/svg10.dtd">
<svg version="1.0" xmlns="http://www.w3.org/2000/svg"
 width="603.000000pt" height="603.000000pt" viewBox="0 0 603.000000 603.000000"
 preserveAspectRatio="xMidYMid meet">
<metadata>
Created by potrace 1.11, written by Peter Selinger 2001-2013
</metadata>
<g transform="translate(0.000000,603.000000) scale(0.100000,-0.100000)"
fill="#000000" stroke="none">
<path d="M596 6008 c-14 -20 -16 -321 -16 -2995 0 -2960 0 -2973 20 -2993 20
-20 33 -20 2414 -20 2164 0 2396 2 2410 16 9 8 17 18 17 22 1 4 3 1341 4 2972
1 1912 -2 2972 -8 2985 -6 11 -15 23 -21 27 -6 4 -1090 8 -2408 8 l-2397 0
-15 -22z m4724 -2993 l0 -2890 -2305 0 c-1530 0 -2305 3 -2306 10 -1 5 -2
1304 -3 2885 -1 2770 0 2875 17 2880 10 3 1048 5 2308 5 l2289 0 0 -2890z"/>
<path d="M2340 2683 c-315 -48 -550 -241 -643 -529 -41 -125 -50 -190 -50
-334 2 -207 43 -357 139 -501 110 -166 320 -297 524 -327 59 -9 354 -8 405 2
154 28 317 97 337 142 10 21 7 41 -21 125 -39 120 -48 125 -140 80 -59 -28
-126 -51 -196 -66 -70 -16 -287 -15 -348 1 -251 65 -394 281 -382 579 7 178
58 310 159 410 111 110 217 148 398 141 127 -5 237 -29 337 -76 95 -45 101
-41 150 103 19 56 25 90 20 105 -13 35 -176 106 -293 128 -111 21 -314 29
-396 17z"/>
<path d="M3658 2240 c-235 -40 -406 -182 -481 -399 -39 -114 -46 -280 -15
-399 60 -236 233 -398 478 -447 99 -20 279 -16 370 9 209 58 365 211 427 421
27 92 25 307 -4 400 -84 266 -327 428 -635 424 -51 -1 -114 -5 -140 -9z m256
-257 c167 -50 258 -189 251 -385 -5 -157 -67 -261 -194 -325 -71 -36 -79 -38
-170 -37 -124 0 -197 30 -271 111 -64 70 -91 142 -95 252 -3 100 12 164 56
236 80 132 262 196 423 148z"/>
</g>
</svg>
